{"title":"Four 2011 DvDRip XviD Ac3 Feel-Free","uid":7096418,"size":520198265,"categoryP":"video","categoryS":"movies","magnet":"?xt=urn:btih:5fe34e80986ab8ee64923dff44222a5f3c39392e&amp;dn=Four+2011+DvDRip+XviD+Ac3+Feel-Free&amp;tr=udp%3A%2F%2Ftracker.openbittorrent.com%3A80&amp;tr=udp%3A%2F%2Fopen.demonii.com%3A1337&amp;tr=udp%3A%2F%2Ftracker.coppersurfer.tk%3A6969&amp;tr=udp%3A%2F%2Fexodus.desync.com%3A6969","seeders":0,"leechers":0,"uploader":"sammyboblammy","files":9,"time":1331568308,"description":"Genre:Thriller\nLanguage:English\nIMDb:http://www.imdb.com/title/tt1645074/\nSource:Legend-Rg Thanks!\nEncoder:Tony\n\nFormat : AVI\nFormat/Info : Audio Video Interleave\nFile size : 495 MiB\nDuration : 1h 24mn\nOverall bit rate : 815 Kbps\n\nVideo\nID : 0\nFormat : MPEG-4 Visual\nFormat profile : Advanced Simple@L5\nFormat settings, BVOP : 1\nFormat settings, QPel : No\nFormat settings, GMC : No warppoints\nFormat settings, Matrix : Default (H.263)\nCodec ID : XVID\nCodec ID/Hint : XviD\nDuration : 1h 24mn\nBit rate : 358 Kbps\nWidth : 640 pixels\nHeight : 288 pixels\nDisplay aspect ratio : 2.222\nFrame rate : 25.000 fps\nColor space : YUV\nChroma subsampling : 4:2:0\nBit depth : 8 bits\nScan type : Progressive\nCompression mode : Lossy\nBits/(Pixel*Frame) : 0.078\nStream size : 217 MiB (44%)\nWriting library : XviD 1.2.1 (UTC 2008-12-04)\n\nAudio\nID : 1\nFormat : AC-3\nFormat/Info : Audio Coding 3\nMode extension : CM (complete main)\nCodec ID : 2000\nDuration : 1h 24mn\nBit rate mode : Constant\nBit rate : 448 Kbps\nChannel(s) : 6 channels\nChannel positions : Front: L C R, Side: L R, LFE\nSampling rate : 48.0 KHz\nBit depth : 16 bits\nCompression mode : Lossy\nStream size : 272 MiB (55%)\nAlignment : Aligned on interleaves\nInterleave, duration : 40 ms (1.00 video frame)\nInterleave, preload duration : 512 ms\n\n\nPlot:\nThe plan: Kidnap your wife's lover. Take him to a remote warehouse. Hurt him a little. Scare him a lot. Keep your hands clean - hire a detective for the dirty work. Simple? There's no such thing as simple.","torrent":{"xt":"urn:btih:5fe34e80986ab8ee64923dff44222a5f3c39392e","amp;dn":"Four+2011+DvDRip+XviD+Ac3+Feel-Free","amp;tr":["udp%3A%2F%2Ftracker.openbittorrent.com%3A80","udp%3A%2F%2Fopen.demonii.com%3A1337","udp%3A%2F%2Ftracker.coppersurfer.tk%3A6969","udp%3A%2F%2Fexodus.desync.com%3A6969"],"infoHash":"5fe34e80986ab8ee64923dff44222a5f3c39392e","infoHashBuffer":{"type":"Buffer","data":[95,227,78,128,152,106,184,238,100,146,61,255,68,34,42,95,60,57,57,46]},"announce":[],"urlList":[]}}